Coordinates
version=1
nRows=27
nColumns=38
inDegrees=no

Units are S.I. units (second, meters, Newtons, ...)
If the header above contains a line with 'inDegrees', this indicates whether rotational values are in degrees (yes) or radians (no).

endheader
time	pelvis_tilt	pelvis_list	pelvis_rotation	pelvis_tx	pelvis_ty	pelvis_tz	hip_flexion_r	hip_adduction_r	hip_rotation_r	knee_angle_r	ankle_angle_r	subtalar_angle_r	mtp_angle_r	hip_flexion_l	hip_adduction_l	hip_rotation_l	knee_angle_l	ankle_angle_l	subtalar_angle_l	mtp_angle_l	lumbar_extension	lumbar_bending	lumbar_rotation	arm_flex_r	arm_add_r	arm_rot_r	elbow_flex_r	pro_sup_r	wrist_flex_r	wrist_dev_r	arm_flex_l	arm_add_l	arm_rot_l	elbow_flex_l	pro_sup_l	wrist_flex_l	wrist_dev_l
2.32	-0.643366	1.3229	2.19451	0.546622	1.35724	0.98872	0.414726	-0.258737	-0.0151685	1.11062	0.00451563	0	0	0.623795	0.0503258	-0.117184	0.233979	-0.0801223	0	0	-0.0114609	-0.182236	0.180265	0.175622	-0.546011	1.10656	0.804332	0.615678	0	0	-0.0357191	-0.40888	0.430946	0.754798	1.05743	0	0
2.33	-0.649676	1.32634	2.19763	0.544422	1.36837	0.987673	0.39893	-0.263753	-0.0217541	1.10948	0.00330298	0	0	0.609355	0.0516099	-0.119032	0.201092	-0.0744492	0	0	-0.0126682	-0.180646	0.18281	0.17043	-0.547557	1.10015	0.806955	0.619917	0	0	-0.0396496	-0.409243	0.430244	0.757697	1.05657	0	0
2.34	-0.653522	1.3287	2.20003	0.542039	1.37932	0.986584	0.384547	-0.269316	-0.0289472	1.10863	0.00134849	0	0	0.601033	0.0526689	-0.122878	0.182684	-0.0720166	0	0	-0.0132738	-0.179616	0.183993	0.164996	-0.548239	1.09303	0.808688	0.624868	0	0	-0.042894	-0.410126	0.430458	0.760383	1.0556	0	0
2.35	-0.6603	1.33159	2.20496	0.539645	1.39029	0.985616	0.369545	-0.274891	-0.0352242	1.10765	-0.00137471	0	0	0.59323	0.0542381	-0.124271	0.17238	-0.071334	0	0	-0.0201637	-0.179902	0.208312	0.116381	-0.553479	1.00115	0.824791	0.686296	0	0	-0.0191402	-0.413447	0.473265	0.756147	1.03983	0	0
2.36	-0.667605	1.33465	2.21014	0.537218	1.40125	0.984643	0.354957	-0.280208	-0.0404267	1.10719	-0.00500819	0	0	0.586947	0.0559917	-0.123513	0.171245	-0.0704555	0	0	-0.0208332	-0.178958	0.205484	0.120626	-0.553451	1.01285	0.823525	0.678244	0	0	-0.0271412	-0.414277	0.465743	0.760675	1.04132	0	0
2.37	-0.672485	1.3366	2.2143	0.534656	1.41214	0.983647	0.341834	-0.285734	-0.0454875	1.10695	-0.00957528	0	0	0.586414	0.0574849	-0.12441	0.185085	-0.0701726	0	0	-0.0210124	-0.178677	0.203124	0.121331	-0.552711	1.01732	0.822553	0.676034	0	0	-0.0330899	-0.415626	0.461465	0.764581	1.04235	0	0
2.38	-0.687346	1.34123	2.22713	0.531947	1.42392	0.982946	0.323253	-0.292499	-0.0527419	1.10471	-0.0153725	0	0	0.5739	0.0630168	-0.112955	0.188303	-0.0713862	0	0	-0.0237908	-0.1781	0.202549	0.1193	-0.553236	1.01855	0.823246	0.67552	0	0	-0.0395759	-0.416456	0.457997	0.768432	1.04326	0	0
2.39	-0.702634	1.34518	2.24136	0.529132	1.43564	0.982326	0.305361	-0.299388	-0.0593099	1.10231	-0.0225332	0	0	0.564961	0.0679077	-0.104229	0.202462	-0.0727435	0	0	-0.026609	-0.178268	0.201759	0.115962	-0.55308	1.01705	0.823592	0.676849	0	0	-0.0448245	-0.4174	0.455741	0.771418	1.04345	0	0
2.4	-0.723049	1.34968	2.26006	0.526278	1.44757	0.981834	0.28672	-0.306662	-0.0650711	1.09993	-0.0310137	0	0	0.55402	0.0731271	-0.0962035	0.216786	-0.0716241	0	0	-0.0303986	-0.178874	0.202142	0.111463	-0.552943	1.01389	0.82404	0.679391	0	0	-0.0496175	-0.418258	0.454446	0.774227	1.04358	0	0
2.41	-0.745926	1.35437	2.28109	0.523354	1.45972	0.981403	0.267945	-0.314055	-0.0705816	1.09769	-0.0411089	0	0	0.542188	0.0786766	-0.0904418	0.228264	-0.0696286	0	0	-0.0343987	-0.179576	0.203172	0.105794	-0.552804	1.00959	0.824564	0.682774	0	0	-0.0543234	-0.419042	0.454051	0.77672	1.04327	0	0
2.42	-0.767285	1.35867	2.30094	0.52032	1.47202	0.980903	0.250631	-0.321161	-0.0758292	1.09649	-0.0523041	0	0	0.531858	0.0841377	-0.0863531	0.23684	-0.0718155	0	0	-0.0372836	-0.180053	0.204292	0.0993599	-0.552346	1.00531	0.824431	0.686437	0	0	-0.0591662	-0.419723	0.454431	0.778432	1.04314	0	0
2.43	-0.781581	1.36127	2.31551	0.517076	1.48416	0.980254	0.237092	-0.327951	-0.0806753	1.0971	-0.06627	0	0	0.528332	0.0882214	-0.0870885	0.249676	-0.0822769	0	0	-0.0380104	-0.180678	0.204087	0.0921809	-0.550746	0.999738	0.823104	0.69116	0	0	-0.0638092	-0.420623	0.455278	0.779608	1.04286	0	0
2.44	-0.806788	1.36449	2.33913	0.513797	1.49668	0.979849	0.22278	-0.336459	-0.0846475	1.09852	-0.0832806	0	0	0.518561	0.0937645	-0.0854211	0.254009	-0.100263	0	0	-0.040076	-0.182174	0.205474	0.0842015	-0.549822	0.993045	0.82257	0.695688	0	0	-0.069047	-0.421083	0.455613	0.781074	1.04239	0	0
2.45	-0.843923	1.36818	2.37332	0.510448	1.50955	0.979796	0.207373	-0.34691	-0.0882902	1.10025	-0.107284	0	0	0.501206	0.101395	-0.0815639	0.249086	-0.126609	0	0	-0.0483169	-0.185042	0.226363	0.0408957	-0.55047	0.918229	0.834281	0.74366	0	0	-0.0527181	-0.423584	0.490255	0.777397	1.02846	0	0
2.46	-0.863899	1.3685	2.39493	0.506627	1.52226	0.97954	0.197212	-0.357228	-0.0932291	1.10376	-0.129338	0	0	0.496203	0.107343	-0.0871961	0.261784	-0.142814	0	0	-0.0462936	-0.187127	0.221447	0.0381361	-0.548351	0.922928	0.831053	0.738506	0	0	-0.0624546	-0.423948	0.48529	0.779184	1.02952	0	0
2.47	-0.93217	1.3725	2.46312	0.502406	1.53584	0.980167	0.176085	-0.374807	-0.102629	1.10713	-0.157364	0	0	0.475661	0.116853	-0.0996092	0.267594	-0.158125	0	0	-0.054693	-0.191811	0.218326	0.0325255	-0.550594	0.923057	0.83474	0.735774	0	0	-0.0717548	-0.424444	0.48148	0.784702	1.03039	0	0
2.48	-0.897104	1.36677	2.42792	0.498935	1.5475	0.979016	0.190593	-0.376761	-0.0876088	1.12137	-0.186427	0	0	0.487119	0.117341	-0.099415	0.286692	-0.172818	0	0	-0.039292	-0.191302	0.218521	0.0256996	-0.545774	0.920558	0.827963	0.73946	0	0	-0.0789882	-0.423376	0.480349	0.781778	1.03141	0	0
2.49	-0.912818	1.36489	2.44216	0.495261	1.55986	0.979026	0.193896	-0.386131	-0.0783977	1.13543	-0.220518	0	0	0.481665	0.122323	-0.101881	0.297689	-0.185078	0	0	-0.0350865	-0.194025	0.2193	0.0189674	-0.54396	0.91777	0.825417	0.744145	0	0	-0.0851078	-0.422995	0.48104	0.781391	1.03137	0	0
2.5	-0.921776	1.36133	2.45283	0.491651	1.57175	0.979461	0.201573	-0.395136	-0.0690588	1.15164	-0.26159	0	0	0.485195	0.125478	-0.110096	0.324568	-0.195435	0	0	-0.0302671	-0.197987	0.217641	0.0129129	-0.538681	0.91326	0.81879	0.751147	0	0	-0.0880348	-0.423601	0.485625	0.778255	1.02982	0	0
2.51	-0.945296	1.35977	2.47601	0.488149	1.58394	0.980532	0.207835	-0.405064	-0.0592252	1.16875	-0.307463	0	0	0.47796	0.131147	-0.110514	0.338209	-0.20377	0	0	-0.029269	-0.201919	0.217965	0.0068124	-0.534413	0.907856	0.812634	0.757942	0	0	-0.0899081	-0.423353	0.491255	0.774272	1.02684	0	0
2.52	-0.995269	1.36013	2.52516	0.484562	1.59598	0.982419	0.210381	-0.418331	-0.0510836	1.18742	-0.358613	0	0	0.466714	0.13652	-0.121398	0.357035	-0.210163	0	0	-0.0363542	-0.207425	0.218279	0.00129021	-0.532507	0.900516	0.810248	0.763987	0	0	-0.089322	-0.423304	0.498221	0.771723	1.02239	0	0
2.53	-0.966752	1.35521	2.50098	0.481191	1.60666	0.983044	0.236036	-0.420128	-0.0350869	1.21293	-0.407585	0	0	0.480771	0.135769	-0.124916	0.388216	-0.214031	0	0	-0.0261355	-0.208021	0.215305	-0.00454071	-0.524664	0.891402	0.800421	0.771206	0	0	-0.0880303	-0.423381	0.506776	0.763918	1.01719	0	0
2.54	-0.982717	1.35444	2.5173	0.47778	1.61779	0.984599	0.252205	-0.426641	-0.0210621	1.23804	-0.456686	0	0	0.473555	0.140511	-0.128811	0.399367	-0.215133	0	0	-0.026985	-0.209869	0.214728	-0.00899037	-0.522529	0.884348	0.797392	0.78073	0	0	-0.0867384	-0.423003	0.514174	0.759994	1.01109	0	0
2.55	-0.998838	1.35407	2.53419	0.474435	1.62845	0.986335	0.269909	-0.431679	-0.00609229	1.26418	-0.507963	0	0	0.466451	0.144627	-0.139353	0.412592	-0.214035	0	0	-0.034018	-0.211665	0.228517	-0.0405388	-0.519059	0.819104	0.804996	0.831259	0	0	-0.0664715	-0.424082	0.548426	0.752195	0.997491	0	0
2.56	-1.01476	1.35486	2.55068	0.471059	1.63891	0.988134	0.288158	-0.434038	0.0106738	1.29175	-0.545141	0	0	0.45544	0.149123	-0.149433	0.419643	-0.211726	0	0	-0.0368255	-0.211674	0.224792	-0.0378925	-0.521025	0.825441	0.804411	0.823374	0	0	-0.0669983	-0.422623	0.550744	0.749703	0.992524	0	0
2.57	-1.03189	1.3564	2.56812	0.467723	1.64921	0.989867	0.306131	-0.433422	0.0296706	1.31901	-0.580414	0	0	0.441607	0.15409	-0.160339	0.423188	-0.206634	0	0	-0.0409818	-0.210981	0.222168	-0.0371016	-0.524133	0.8281	0.806284	0.820341	0	0	-0.0666492	-0.421089	0.553762	0.748009	0.989627	0	0
2.58	-1.04888	1.35915	2.58508	0.464545	1.65927	0.991709	0.324584	-0.431177	0.0467649	1.34623	-0.61196	0	0	0.425338	0.158622	-0.169835	0.423441	-0.200438	0	0	-0.0461795	-0.209029	0.21994	-0.0364759	-0.527598	0.829193	0.808761	0.821478	0	0	-0.0656184	-0.418952	0.556619	0.745827	0.987685	0	0
